<svg width="38" height="38" viewBox="0 0 38 38" fill="none" xmlns="http://www.w3.org/2000/svg">
<path d="M19.0002 0C8.50804 0 0 8.72175 0 19.481C0 28.0883 5.44412 35.3906 12.9935 37.9665C13.943 38.1469 14.2916 37.5439 14.2916 37.0294C14.2916 36.5648 14.274 35.0302 14.2659 33.4024C8.97999 34.5809 7.86461 31.1039 7.86461 31.1039C7.00031 28.8522 5.75498 28.2534 5.75498 28.2534C4.0311 27.0443 5.88493 27.0692 5.88493 27.0692C7.79287 27.2066 8.7975 29.0767 8.7975 29.0767C10.4921 32.0549 13.2423 31.1939 14.3266 30.6961C14.4971 29.437 14.9895 28.5776 15.5329 28.0912C11.3127 27.5986 6.87634 25.9281 6.87634 18.4636C6.87634 16.3367 7.61856 14.5988 8.834 13.2346C8.63672 12.7439 7.98637 10.7625 9.01806 8.07914C9.01806 8.07914 10.6136 7.55556 14.2445 10.076C15.76 9.64438 17.3855 9.42792 19.0002 9.4205C20.6149 9.42792 22.2415 9.64438 23.76 10.076C27.3864 7.55556 28.9797 8.07914 28.9797 8.07914C30.0139 10.7625 29.3633 12.7439 29.166 13.2346C30.3843 14.5988 31.1215 16.3367 31.1215 18.4636C31.1215 25.9459 26.6766 27.5934 22.4457 28.0757C23.1272 28.6802 23.7345 29.8658 23.7345 31.6833C23.7345 34.2899 23.7124 36.3877 23.7124 37.0294C23.7124 37.5478 24.0544 38.1552 25.0175 37.9639C32.5628 35.3851 38 28.0854 38 19.481C38 8.72175 29.4932 0 19.0002 0Z" fill="#D1E2F4"/>
<path d="M7.25229 27.8368C7.21052 27.9327 7.06229 27.9614 6.92725 27.8956C6.78969 27.8327 6.71244 27.702 6.75703 27.6059C6.79786 27.5072 6.9464 27.4797 7.08364 27.5459C7.22151 27.6088 7.30002 27.7407 7.25229 27.8368Z" fill="#D1E2F4"/>
<path d="M8.02059 28.7082C7.93014 28.7935 7.75333 28.7539 7.63336 28.6191C7.50931 28.4846 7.48607 28.3048 7.57778 28.2182C7.67105 28.1329 7.84252 28.1728 7.96688 28.3073C8.09093 28.4434 8.11511 28.6219 8.02059 28.7082Z" fill="#D1E2F4"/>
<path d="M8.7683 29.819C8.65211 29.9011 8.4621 29.8241 8.34465 29.6526C8.22845 29.481 8.22845 29.2753 8.34716 29.1929C8.46493 29.1105 8.65211 29.1846 8.77113 29.3549C8.88702 29.5293 8.88702 29.735 8.7683 29.819Z" fill="#D1E2F4"/>
<path d="M9.79265 30.8925C9.6887 31.0091 9.46729 30.9778 9.30524 30.8187C9.13942 30.6631 9.09326 30.4424 9.19752 30.3258C9.30273 30.2089 9.52539 30.2418 9.6887 30.3996C9.85326 30.5549 9.90351 30.7772 9.79265 30.8925Z" fill="#D1E2F4"/>
<path d="M11.2059 31.5155C11.16 31.6666 10.9468 31.7353 10.732 31.6711C10.5175 31.605 10.3771 31.428 10.4205 31.2753C10.4651 31.1233 10.6792 31.0517 10.8956 31.1204C11.1098 31.1862 11.2505 31.3619 11.2059 31.5155Z" fill="#D1E2F4"/>
<path d="M12.7579 31.6311C12.7633 31.7902 12.5811 31.9221 12.3557 31.925C12.1289 31.9301 11.9455 31.8014 11.943 31.6449C11.943 31.4842 12.1211 31.3536 12.3478 31.3497C12.5733 31.3453 12.7579 31.473 12.7579 31.6311Z" fill="#D1E2F4"/>
<path d="M14.2023 31.3812C14.2293 31.5364 14.0726 31.6958 13.8486 31.7383C13.6285 31.7792 13.4247 31.6834 13.3967 31.5294C13.3694 31.3703 13.5289 31.2109 13.7488 31.1697C13.973 31.1301 14.1737 31.2234 14.2023 31.3812Z" fill="#D1E2F4"/>
</svg>
