<svg width="38" height="38" viewBox="0 0 38 38" fill="none" xmlns="http://www.w3.org/2000/svg">
<path d="M0 19C0 8.50659 8.50659 0 19 0C29.4934 0 38 8.50659 38 19C38 29.4934 29.4934 38 19 38C8.50659 38 0 29.4934 0 19Z" fill="#D1E2F4"/>
<path fill-rule="evenodd" clip-rule="evenodd" d="M13.7107 11.7346C13.7107 12.9768 12.7757 13.9708 11.2743 13.9708H11.2468C9.80123 13.9708 8.8667 12.9768 8.8667 11.7346C8.8667 10.4662 9.82969 9.5 11.3027 9.5C12.7757 9.5 13.6828 10.4662 13.7107 11.7346ZM13.4271 15.7366V28.6738H9.12133V15.7366H13.4271ZM28.9554 28.6739L28.9555 21.2561C28.9555 17.2824 26.8313 15.4329 23.9979 15.4329C21.7118 15.4329 20.6883 16.6886 20.1168 17.5695V15.7371H15.8105C15.8672 16.951 15.8105 28.6742 15.8105 28.6742H20.1168V21.4491C20.1168 21.0624 20.1448 20.6767 20.2586 20.3999C20.5698 19.6274 21.2783 18.8277 22.4679 18.8277C24.0266 18.8277 24.6497 20.014 24.6497 21.7525V28.6739H28.9554Z" fill="#345881"/>
</svg>
